HIERARCHY
ROOT root
{
	OFFSET	0	13.1	24.9
	CHANNELS 6  Xposition Yposition Zposition Xrotation Yrotation Zrotation
	JOINT spine_1
	{
		OFFSET	0	9.99999	0
		CHANNELS 3  Xrotation Yrotation Zrotation
		JOINT spine_2
		{
			OFFSET	0	112	-10
			CHANNELS 3  Xrotation Yrotation Zrotation
			JOINT spine_3
			{
				OFFSET	0	206.5	19.3
				CHANNELS 3  Xrotation Yrotation Zrotation
				JOINT spine_4
				{
					OFFSET	0	110.4	14.6
					CHANNELS 3  Xrotation Yrotation Zrotation
					JOINT neck_1
					{
						OFFSET	0	71.8	-50.3
						CHANNELS 3  Xrotation Yrotation Zrotation
						JOINT neck_2
						{
							OFFSET	0	86.2	-25.8
							CHANNELS 3  Xrotation Yrotation Zrotation
							JOINT head_ee
							{
								OFFSET	0	179.8	-8.7
								CHANNELS 3  Xrotation Yrotation Zrotation
								End Site
								{
									OFFSET	1	0	0
								}
							}
						}
					}
					JOINT left_clavicle
					{
						OFFSET	-43.2	22.4	-70.8
						CHANNELS 3  Xrotation Yrotation Zrotation
						JOINT left_shoulder
						{
							OFFSET	-93.9	-5.79999	48.7
							CHANNELS 3  Xrotation Yrotation Zrotation
							JOINT left_elbow
							{
								OFFSET	-291.4	-30.8	15.2
								CHANNELS 3  Xrotation Yrotation Zrotation
								JOINT left_lowarm_twist
								{
									OFFSET	-110.7	-3.89999	13.6
									CHANNELS 3  Xrotation Yrotation Zrotation
									JOINT left_hand
									{
										OFFSET	-110.7	-3.89999	13.6
										CHANNELS 3  Xrotation Yrotation Zrotation
										JOINT left_ee
										{
											OFFSET	-80.8	-5.10001	12.1
											CHANNELS 3  Xrotation Yrotation Zrotation
											End Site
											{
												OFFSET	1	0	0
											}
										}
									}
								}
							}
						}
					}
					JOINT right_clavicle
					{
						OFFSET	43.2	22.4	-70.8
						CHANNELS 3  Xrotation Yrotation Zrotation
						JOINT right_shoulder
						{
							OFFSET	93.9	-5.79999	48.7
							CHANNELS 3  Xrotation Yrotation Zrotation
							JOINT right_elbow
							{
								OFFSET	291.4	-30.8	15.2
								CHANNELS 3  Xrotation Yrotation Zrotation
								JOINT right_lowarm_twist
								{
									OFFSET	110.7	-3.89999	13.6
									CHANNELS 3  Xrotation Yrotation Zrotation
									JOINT right_hand
									{
										OFFSET	110.7	-3.89999	13.6
										CHANNELS 3  Xrotation Yrotation Zrotation
										JOINT right_ee
										{
											OFFSET	80.8	-5.10001	12.1
											CHANNELS 3  Xrotation Yrotation Zrotation
											End Site
											{
												OFFSET	1	0	0
											}
										}
									}
								}
							}
						}
					}
				}
			}
		}
	}
	JOINT left_hip
	{
		OFFSET	-82.8	-127.5	0.300001
		CHANNELS 3  Xrotation Yrotation Zrotation
		JOINT left_knee
		{
			OFFSET	-28.2	-396.7	2.2
			CHANNELS 3  Xrotation Yrotation Zrotation
			JOINT left_ankle
			{
				OFFSET	-11.7	-411.3	35.4
				CHANNELS 3  Xrotation Yrotation Zrotation
				JOINT left_toes
				{
					OFFSET	0	-60	-88.6
					CHANNELS 3  Xrotation Yrotation Zrotation
					JOINT left_foot_ee
					{
						OFFSET	-22.5	-16.5	-42.2
						CHANNELS 3  Xrotation Yrotation Zrotation
						End Site
						{
							OFFSET	1	0	0
						}
					}
				}
			}
		}
	}
	JOINT right_hip
	{
		OFFSET	82.8	-127.5	0.300001
		CHANNELS 3  Xrotation Yrotation Zrotation
		JOINT right_knee
		{
			OFFSET	28.2	-396.7	2.2
			CHANNELS 3  Xrotation Yrotation Zrotation
			JOINT right_ankle
			{
				OFFSET	11.7	-411.3	35.4
				CHANNELS 3  Xrotation Yrotation Zrotation
				JOINT right_toes
				{
					OFFSET	0	-60	-88.6
					CHANNELS 3  Xrotation Yrotation Zrotation
					JOINT right_foot_ee
					{
						OFFSET	22.5	-16.5	-42.2
						CHANNELS 3  Xrotation Yrotation Zrotation
						End Site
						{
							OFFSET	1	0	0
						}
					}
				}
			}
		}
	}
}
MOTION
Frames: 6
Frame Time: 0.02
610.91 742.868 -1400.83 174.368 79.0433 -173.385 0.0232443 -0.169083 -0.319984 0.023289 -0.148379 -0.330095 0.0241892 -0.0758383 -0.353875 0.0240382 -0.130774 -0.337457 -9.35637 -0.817595 -0.293883 -9.3566 -1.33314 -0.482823 -0.0 0.0 -0.0 2.27237 -16.5095 2.90548 2.49986 -17.8036 65.1283 2.29429 -48.6494 1.03721 -39.4312 -2.89087 4.01951 -0.327326 17.0884 4.95022 -0.0 0.0 -0.0 5.52321 7.48816 -10.4113 -30.1695 5.23711 -70.3812 0.807463 21.801 -0.155503 0.548565 -0.0190052 0.0674821 1.44155 -15.2476 -15.3478 0.0 0.0 0.0 0.298294 -34.5458 2.08626 2.84336 -0.127489 -0.41762 17.5973 22.6304 -2.51755 -26.1708 0.0 0.0 -0.0 0.0 -0.0 10.4926 -12.0251 3.30346 -14.3132 -0.320026 -2.16753 14.9137 -7.28522 2.08133 -6.61514 0.0 0.0 0.0 0.0 0.0 
603.414 740.604 -1402.65 175.097 80.2524 -174.423 -0.00942823 -0.110744 -0.214091 -0.009408 -0.0968968 -0.220704 -0.00901455 -0.0483091 -0.236147 -0.00908217 -0.0849977 -0.225554 -9.1212 -0.574495 -0.0922123 -9.12141 -1.01378 -0.225336 -0.0 0.0 -0.0 2.13335 -16.2524 2.63466 2.58011 -15.9493 65.1651 2.30523 -48.7845 1.04544 -40.585 -3.01359 4.10236 -0.66139 17.744 3.1845 -0.0 0.0 -0.0 5.55377 7.92577 -10.4531 -28.6336 4.59583 -69.9647 0.778937 21.0997 -0.14507 0.614396 -0.0212424 0.0755922 1.25508 -14.5855 -13.9203 0.0 0.0 0.0 0.403909 -35.7038 2.12452 2.03577 -0.0891694 -0.299641 18.7508 21.5252 -2.65666 -26.034 0.0 0.0 -0.0 0.0 -0.0 10.4143 -12.7655 3.40279 -10.0912 -0.282155 -1.52098 9.19847 -0.848411 1.32115 -7.97712 0.0 0.0 0.0 0.0 0.0 
599.587 740.015 -1406.82 177.175 81.2899 -176.792 0.0451445 -0.0849424 -0.0796321 0.0451444 -0.0797031 -0.0848758 0.0452658 -0.0601628 -0.0996841 0.04526 -0.075151 -0.0889315 -9.58354 -0.307106 0.265907 -9.58346 -0.758607 0.185797 -0.0 0.0 -0.0 2.02439 -16.3313 2.3949 2.66566 -14.5366 65.3527 2.30447 -48.7751 1.04486 -41.2929 -3.08971 4.15196 -0.869477 18.5613 2.27222 -0.0 0.0 -0.0 5.69314 8.08229 -10.7344 -27.6364 4.376 -70.3243 0.742162 20.1857 -0.132105 0.433211 -0.0150625 0.0532768 1.09555 -14.2862 -12.791 0.0 0.0 0.0 0.421298 -34.0528 1.43845 1.91125 -0.0834096 -0.281405 19.916 22.2762 -2.81784 -25.7652 0.0 0.0 -0.0 0.0 -0.0 10.3187 -13.0979 3.5338 -8.3055 -0.251821 -1.24866 8.06396 2.70006 1.1741 -8.99355 0.0 0.0 0.0 0.0 0.0 
597.214 740.29 -1411.19 179.908 81.8937 -179.977 -0.064157 -0.0473639 0.0777553 -0.0641553 -0.0522157 0.0745838 -0.064225 -0.0667945 0.0618685 -0.0642256 -0.0561853 0.071641 -9.67859 -0.175812 0.385808 -9.67824 -0.59332 0.334288 -0.0 0.0 -0.0 1.83331 -16.3833 1.98282 2.89559 -13.4686 65.3761 2.32668 -49.0472 1.06161 -41.5516 -3.11767 4.16985 -0.906 18.591 2.06522 -0.0 0.0 -0.0 5.77264 8.37954 -10.8852 -27.0253 4.35811 -70.9736 0.724498 19.7428 -0.126074 0.440339 -0.0153066 0.0541545 1.01277 -14.0161 -12.1644 0.0 0.0 0.0 1.19527 -34.1087 1.87957 1.32576 -0.0568596 -0.195491 20.1462 22.2142 -2.84682 -25.9348 0.0 0.0 -0.0 0.0 -0.0 10.262 -14.3418 3.68652 -6.55642 -0.213893 -0.982936 6.29241 5.35828 0.930847 -9.84846 0.0 0.0 0.0 0.0 0.0 
594.914 739.779 -1412.84 -176.428 81.2637 176.324 -0.159238 -0.0565359 0.0854189 -0.159236 -0.0618567 0.0816483 -0.159326 -0.0778211 0.0666075 -0.159326 -0.0663251 0.078062 -6.58056 0.753432 -0.606059 -6.57905 1.83808 -0.460635 -0.0 0.0 -0.0 1.70787 -16.4622 1.70762 3.29497 -12.6338 65.6154 2.32656 -49.0457 1.06151 -42.3331 -3.20263 4.22314 -0.394485 16.4764 4.29083 -0.0 0.0 -0.0 5.61156 8.6157 -10.5386 -26.0789 3.62522 -70.9585 0.845183 22.7178 -0.169791 1.64418 -0.0550227 0.202782 1.50165 -13.9594 -15.3003 0.0 0.0 0.0 1.33989 -35.6452 1.56819 2.21301 -0.0974368 -0.325579 19.3644 21.0957 -2.73154 -26.7379 0.0 0.0 -0.0 0.0 -0.0 10.2294 -13.6321 3.60139 -5.75232 -0.193736 -0.861184 6.90642 4.7321 1.017 -10.2176 0.0 0.0 0.0 0.0 0.0 
589.849 735.028 -1418.75 -174.686 80.7286 174.202 -0.185078 -0.0201515 0.131917 -0.185068 -0.0285048 0.130367 -0.185131 -0.0556604 0.121285 -0.18515 -0.0358073 0.128553 -4.89659 1.30055 1.13491 -4.89307 1.53443 1.38054 -0.0 0.0 -0.0 0.931729 -16.8092 0.016198 3.80441 -12.2917 66.6926 2.35946 -49.4433 1.08643 -41.767 -3.14102 4.18466 0.23524 14.7212 7.50239 -0.0 0.0 -0.0 5.57386 8.85562 -10.4478 -25.3947 2.89341 -71.3707 0.882489 23.6127 -0.184467 3.03785 -0.097085 0.375826 1.74302 -12.7585 -16.4737 0.0 0.0 0.0 1.21947 -36.7407 0.883618 3.00323 -0.135273 -0.440913 20.0798 20.3302 -2.81487 -26.6712 0.0 0.0 -0.0 0.0 -0.0 10.1771 -14.2204 3.58494 -5.39292 -0.184175 -0.806858 8.0783 7.02089 1.19656 -10.4337 0.0 0.0 0.0 0.0 0.0 
